<?xml version="1.0" standalone="no"?>
<!DOCTYPE svg PUBLIC "-//W3C//DTD SVG 20010904//EN"
 "http://www.w3.org/TR/2001/REC-SVG-20010904/DTD/svg10.dtd">
<svg version="1.0" xmlns="http://www.w3.org/2000/svg"
 width="705.000000pt" height="705.000000pt" viewBox="0 0 705.000000 705.000000"
 preserveAspectRatio="xMidYMid meet">
<metadata>
Created by potrace 1.14, written by Peter Selinger 2001-2017
</metadata>
<g transform="translate(0.000000,705.000000) scale(0.100000,-0.100000)"
fill="#000000" stroke="none">
<path d="M3300 7039 c-135 -9 -366 -41 -470 -66 -36 -8 -85 -19 -110 -24 -47
-10 -67 -15 -245 -74 -60 -20 -128 -41 -150 -47 -22 -6 -42 -14 -45 -17 -7 -9
-109 -52 -152 -64 -21 -6 -38 -14 -38 -18 0 -4 -17 -13 -37 -20 -21 -6 -40
-15 -43 -18 -3 -4 -25 -15 -50 -26 -25 -11 -47 -22 -50 -25 -3 -3 -36 -21 -75
-40 -38 -19 -75 -41 -83 -47 -7 -7 -20 -13 -28 -13 -8 0 -14 -4 -14 -9 0 -5
-18 -16 -40 -25 -22 -9 -40 -20 -40 -25 0 -5 -13 -14 -30 -20 -16 -5 -30 -14
-30 -19 0 -5 -13 -15 -30 -22 -16 -7 -30 -16 -30 -21 0 -5 -11 -11 -25 -15
-14 -3 -25 -9 -25 -13 0 -4 -12 -14 -27 -22 -16 -7 -40 -25 -54 -39 -14 -14
-39 -34 -54 -45 -16 -11 -34 -26 -41 -32 -7 -7 -15 -13 -19 -13 -3 0 -21 -16
-39 -35 -19 -19 -36 -35 -40 -35 -8 0 -208 -202 -261 -264 -22 -26 -51 -59
-65 -74 -14 -15 -39 -45 -55 -67 -17 -22 -41 -52 -55 -66 -14 -15 -52 -67 -84
-115 -105 -158 -120 -179 -126 -184 -4 -3 -38 -66 -76 -140 -38 -74 -72 -137
-76 -140 -4 -3 -23 -42 -43 -85 -20 -44 -45 -98 -55 -121 -11 -23 -20 -46 -20
-53 0 -6 -4 -19 -8 -29 -26 -53 -51 -112 -65 -152 -33 -95 -97 -329 -110 -400
-3 -14 -12 -63 -21 -110 -9 -47 -18 -107 -21 -135 -2 -27 -8 -66 -11 -85 -11
-56 -14 -658 -5 -740 5 -41 12 -102 15 -135 4 -33 14 -96 22 -140 9 -44 18
-92 20 -106 2 -14 8 -38 13 -52 6 -15 9 -27 6 -27 -2 0 1 -15 6 -32 5 -18 12
-46 15 -63 3 -16 17 -68 31 -115 13 -47 33 -114 43 -150 36 -126 174 -450 192
-450 4 0 8 -6 8 -13 0 -12 74 -159 100 -197 5 -8 24 -41 41 -72 18 -32 36 -58
40 -58 5 0 9 -6 9 -13 0 -7 9 -23 20 -35 11 -12 20 -24 20 -27 0 -6 75 -110
95 -131 6 -6 19 -23 30 -39 11 -15 31 -40 45 -55 14 -16 48 -54 75 -85 47 -54
265 -274 319 -322 14 -13 30 -23 35 -23 5 0 13 -9 16 -20 3 -11 13 -20 20 -20
8 0 19 -9 25 -20 6 -11 16 -20 23 -20 7 0 20 -8 29 -18 34 -35 55 -52 63 -52
4 0 15 -8 24 -19 9 -10 26 -21 39 -25 12 -4 22 -12 22 -17 0 -5 6 -9 14 -9 7
0 25 -11 39 -24 15 -14 36 -27 47 -31 11 -3 20 -11 20 -16 0 -5 6 -9 14 -9 8
0 21 -6 28 -13 7 -6 31 -21 53 -32 22 -11 42 -23 45 -26 3 -3 20 -11 38 -18
17 -8 32 -17 32 -21 0 -5 20 -16 45 -26 25 -9 45 -20 45 -25 0 -4 13 -10 30
-14 16 -4 30 -10 30 -14 0 -4 24 -15 53 -26 28 -10 54 -21 57 -24 3 -3 19 -11
35 -17 17 -7 73 -29 125 -49 127 -49 182 -69 265 -93 39 -12 93 -28 120 -36
46 -14 168 -40 390 -81 246 -46 786 -46 1034 1 273 51 356 71 551 129 69 21
244 88 350 135 97 42 301 147 310 159 3 4 20 13 37 20 18 7 41 21 52 30 11 9
43 30 72 46 28 17 60 37 69 47 10 9 27 19 37 22 11 4 35 20 54 36 44 38 49 42
81 63 15 9 43 33 62 52 20 19 38 35 41 35 5 0 33 22 77 63 17 15 34 27 38 27
5 0 12 9 15 20 3 11 11 20 17 20 11 0 107 96 198 200 30 34 69 77 85 96 34 37
32 35 105 129 30 39 58 75 63 80 26 33 97 136 97 141 0 3 27 46 60 96 33 51
60 97 60 104 0 7 6 19 13 26 27 27 160 319 200 438 8 25 25 72 37 105 47 128
113 383 125 484 4 30 10 64 15 75 4 12 8 23 8 26 -1 7 14 111 17 131 2 9 6 40
9 70 4 30 11 90 17 134 11 77 7 472 -5 540 -2 17 -8 57 -11 90 -4 33 -8 74
-10 90 -2 17 -11 73 -20 125 -10 52 -19 104 -20 115 -12 73 -21 110 -55 223
-21 70 -45 147 -54 172 -9 25 -19 52 -21 60 -11 43 -68 185 -100 251 -20 41
-36 75 -35 77 2 12 -2 23 -13 34 -7 7 -29 47 -50 88 -56 112 -128 244 -136
250 -5 3 -16 21 -26 40 -10 19 -21 37 -25 40 -3 3 -21 28 -40 55 -44 66 -93
129 -102 133 -5 2 -8 10 -8 17 0 8 -6 18 -13 22 -7 4 -24 24 -37 43 -14 19
-42 52 -62 72 -21 21 -38 41 -38 44 0 3 -19 25 -42 50 -63 65 -153 157 -174
176 -11 10 -30 29 -44 43 -13 14 -30 25 -37 25 -6 0 -15 9 -18 20 -3 11 -11
20 -16 20 -5 0 -26 18 -48 40 -21 22 -41 40 -45 40 -3 0 -15 8 -25 18 -46 42
-74 62 -87 62 -8 0 -14 5 -14 10 0 6 -12 16 -27 23 -15 6 -38 22 -52 35 -13
12 -28 22 -32 22 -4 0 -20 11 -35 25 -15 14 -44 32 -65 42 -22 9 -39 20 -39
24 0 4 -16 13 -35 19 -19 6 -35 15 -35 20 0 4 -82 48 -182 98 -214 105 -251
122 -270 122 -7 0 -22 6 -33 13 -26 17 -265 98 -375 127 -47 12 -116 30 -155
40 -109 29 -334 59 -515 70 -183 11 -256 11 -440 -1z"/>
</g>
</svg>
