<?xml version="1.0" standalone="no"?>
<!DOCTYPE svg PUBLIC "-//W3C//DTD SVG 20010904//EN"
 "http://www.w3.org/TR/2001/REC-SVG-20010904/DTD/svg10.dtd">
<svg version="1.0" xmlns="http://www.w3.org/2000/svg"
 width="602.000000pt" height="602.000000pt" viewBox="0 0 602.000000 602.000000"
 preserveAspectRatio="xMidYMid meet">
<metadata>
Created by potrace 1.14, written by Peter Selinger 2001-2017
</metadata>
<g transform="translate(0.000000,602.000000) scale(0.100000,-0.100000)"
fill="#000000" stroke="none">
<path d="M2796 6013 c-5 -5 -26 -7 -185 -18 -46 -3 -87 -8 -92 -11 -5 -3 -22
-8 -37 -10 -15 -3 -45 -10 -67 -16 -22 -6 -44 -12 -50 -13 -38 -5 -86 -19 -91
-26 -3 -5 -13 -9 -23 -9 -10 0 -43 -11 -73 -25 -29 -13 -62 -26 -73 -28 -37
-8 -85 -29 -85 -38 0 -5 -7 -9 -16 -9 -17 0 -86 -30 -94 -41 -3 -4 -27 -17
-55 -30 -27 -12 -52 -26 -55 -29 -3 -4 -27 -19 -53 -34 -26 -14 -58 -35 -69
-46 -12 -11 -25 -20 -28 -20 -4 0 -17 -9 -29 -19 -12 -11 -44 -34 -71 -53 -27
-18 -52 -41 -56 -51 -3 -9 -10 -15 -15 -12 -5 4 -9 1 -9 -4 0 -6 -5 -11 -10
-11 -14 0 -230 -216 -230 -229 0 -6 -5 -11 -11 -11 -5 0 -7 -4 -4 -10 3 -5 1
-10 -5 -10 -13 0 -30 -20 -93 -104 -20 -28 -43 -58 -49 -66 -7 -8 -30 -41 -52
-75 -21 -33 -41 -62 -45 -65 -3 -3 -19 -30 -34 -60 -16 -30 -53 -102 -83 -160
-30 -58 -68 -141 -85 -185 -16 -44 -34 -89 -39 -100 -9 -20 -17 -46 -25 -82
-2 -10 -16 -56 -30 -103 -14 -47 -28 -96 -30 -110 -10 -52 -34 -207 -39 -255
-3 -27 -9 -81 -13 -120 -13 -114 -8 -323 11 -450 2 -16 7 -59 11 -95 4 -36 11
-85 17 -110 9 -42 12 -55 22 -106 2 -11 11 -37 20 -58 9 -21 16 -48 16 -59 0
-11 11 -43 24 -71 13 -28 32 -78 41 -111 10 -33 44 -114 76 -181 32 -67 59
-124 59 -127 0 -3 22 -41 50 -84 27 -43 58 -94 69 -113 10 -19 31 -48 45 -63
14 -15 33 -42 42 -58 8 -17 21 -32 29 -35 8 -3 17 -14 20 -23 3 -10 23 -38 45
-62 22 -24 40 -47 40 -51 0 -5 6 -8 13 -8 6 0 22 -16 35 -36 14 -21 27 -32 35
-28 7 4 9 3 4 -1 -9 -10 51 -75 69 -75 6 0 17 -14 24 -30 7 -17 19 -30 26 -30
8 0 14 -4 14 -10 0 -5 7 -10 15 -10 8 0 15 -6 15 -14 0 -8 9 -17 20 -21 11 -3
29 -18 40 -33 12 -14 35 -32 51 -39 16 -6 29 -17 29 -23 0 -5 5 -10 11 -10 6
0 17 -6 24 -13 35 -30 45 -37 59 -37 7 0 17 -7 20 -15 3 -9 22 -23 41 -31 19
-8 35 -18 35 -22 0 -4 26 -21 58 -36 31 -16 64 -34 72 -41 18 -15 112 -51 123
-47 4 1 7 -2 7 -8 0 -10 84 -50 105 -50 7 0 30 -9 52 -19 47 -24 168 -61 200
-61 13 0 23 -4 23 -10 0 -5 10 -10 23 -10 55 -1 87 -43 102 -139 3 -18 7 -36
10 -40 2 -4 7 -30 11 -57 3 -27 11 -58 17 -69 6 -11 9 -20 8 -20 -5 0 12 -60
19 -70 4 -5 17 -43 29 -83 12 -41 32 -97 45 -125 13 -29 29 -68 36 -87 8 -19
21 -46 30 -60 10 -14 21 -36 25 -50 4 -14 17 -43 30 -65 12 -22 26 -51 30 -64
12 -39 95 -161 110 -161 32 0 49 17 81 84 19 39 59 118 89 176 30 58 55 111
55 118 0 7 11 30 24 51 14 21 32 65 42 97 9 33 22 66 29 74 7 8 19 44 25 80 6
36 18 79 25 95 17 38 42 129 48 175 7 50 25 84 55 102 34 20 132 49 132 40 0
-4 4 -2 8 5 4 6 19 14 32 16 14 3 42 12 63 20 20 9 37 13 37 10 0 -3 9 2 20
12 11 10 20 15 20 10 0 -4 11 0 25 9 13 9 29 16 34 16 5 0 22 5 38 12 15 6 37
13 48 15 10 2 23 9 27 16 4 6 11 12 15 12 14 0 77 28 133 59 30 17 61 31 68
32 7 2 28 14 47 28 18 14 38 26 44 26 6 0 11 5 11 10 0 6 4 10 10 10 19 0 197
124 255 177 7 7 18 13 23 13 6 0 22 13 35 30 14 16 30 30 34 30 5 0 15 9 23
20 8 12 30 30 48 40 17 11 32 25 32 32 0 14 91 106 97 98 2 -3 16 15 31 40 25
42 43 65 100 127 12 13 31 41 41 61 10 20 28 46 40 56 12 11 21 23 21 29 0 5
10 23 22 39 11 17 33 54 48 82 26 49 78 146 100 183 5 10 21 47 34 83 13 36
38 101 56 145 38 95 67 193 76 255 3 25 12 59 19 76 7 17 16 62 20 100 4 38 8
71 10 74 18 30 26 414 12 555 -11 111 -44 322 -52 335 -2 3 -6 26 -10 50 -4
25 -15 72 -26 105 -27 86 -118 325 -134 355 -7 14 -34 62 -58 107 -25 45 -51
98 -58 118 -7 19 -16 35 -20 35 -7 0 -109 144 -109 154 0 2 -12 17 -27 33 -16
16 -46 53 -68 82 -37 49 -99 122 -125 146 -6 6 -19 18 -28 29 -9 10 -37 37
-61 60 -24 22 -61 58 -82 79 -22 20 -39 35 -39 32 0 -6 -84 57 -106 80 -9 8
-21 15 -28 15 -6 0 -18 9 -26 20 -8 11 -19 20 -24 20 -5 0 -19 9 -31 20 -22
21 -58 41 -230 129 -128 65 -170 84 -244 105 -29 9 -59 20 -65 25 -12 9 -120
43 -148 46 -10 1 -21 4 -24 8 -4 4 -17 7 -29 7 -13 0 -39 7 -59 15 -20 8 -36
13 -36 10 0 -2 -11 0 -24 5 -13 5 -54 11 -92 15 -38 3 -82 8 -99 11 -40 7
-473 13 -479 7z"/>
</g>
</svg>
